<mxfile host="65bd71144e">
    <diagram id="ExF5YHHs8WzlJSfrvd7J" name="Page-1">
        <mxGraphModel dx="966" dy="814" grid="1" gridSize="10" guides="1" tooltips="1" connect="1" arrows="1" fold="1" page="1" pageScale="1" pageWidth="850" pageHeight="1100" math="0" shadow="0">
            <root>
                <mxCell id="0"/>
                <mxCell id="1" parent="0"/>
                <mxCell id="12" value="&lt;h1 style=&quot;font-size: 14px;&quot;&gt;&lt;font face=&quot;Verdana&quot; style=&quot;font-size: 14px;&quot;&gt;Cajero&lt;/font&gt;&lt;/h1&gt;&lt;table border=&quot;1&quot; width=&quot;100%&quot; height=&quot;100%&quot; cellpadding=&quot;4&quot; style=&quot;width: 100%; height: 100%; border-collapse: collapse; font-size: 14px;&quot;&gt;&lt;tbody&gt;&lt;tr&gt;&lt;td&gt;&lt;font face=&quot;Verdana&quot; style=&quot;font-size: 14px;&quot;&gt;-listaTickets: ArrayList&amp;lt;Ticket&amp;gt;&lt;br&gt;-cajaFinalMetalico: double&lt;br&gt;-cajaFinalTarjeta: double&lt;br&gt;-CENT_1: double = 0.01&lt;br&gt;-CENT_2: double = 0.02&lt;br&gt;-CENT_5: double = 0.05&lt;br&gt;-CENT_10: double = 0.10&lt;br&gt;-CENT_20: double = 0.20&lt;br&gt;-CENT_50: double = 0.50&lt;br&gt;-EURO_1: double = 1&lt;br&gt;-EURO_2: double = 2&lt;br&gt;-BILLETE_5: double = 5&lt;br&gt;-BILLETE_10: double = 10&lt;br&gt;-BILLETE_20: double = 20&lt;br&gt;-BILLETE_50: double = 50&lt;br&gt;-BILLETE_100: double = 100&lt;br&gt;&lt;/font&gt;&lt;/td&gt;&lt;/tr&gt;&lt;tr&gt;&lt;td&gt;&lt;font style=&quot;font-size: 14px;&quot;&gt;&lt;font face=&quot;Verdana&quot;&gt;+aÃ±adirTicket(ticket: Ticket) : boolean&lt;/font&gt;&lt;br&gt;&lt;br&gt;&lt;br&gt;&lt;br&gt;&lt;br&gt;&lt;br&gt;&lt;br&gt;&lt;br&gt;&lt;br&gt;&lt;/font&gt;&lt;/td&gt;&lt;/tr&gt;&lt;/tbody&gt;&lt;/table&gt;" style="text;html=1;whiteSpace=wrap;strokeColor=#666666;fillColor=#f5f5f5;overflow=fill;fontColor=#333333;align=left;" vertex="1" parent="1">
                    <mxGeometry x="70" y="80" width="320" height="450" as="geometry"/>
                </mxCell>
            </root>
        </mxGraphModel>
    </diagram>
</mxfile>